<svg xmlns="http://www.w3.org/2000/svg" width="11.685" height="14.387" viewBox="0 0 11.685 14.387">
    <g data-name="Group 2238">
        <path data-name="Subtraction 5" d="M-5519.136 20629.58h-7.357a2.151 2.151 0 0 1-2.164-2.133v-4.783a2.135 2.135 0 0 1 1.48-2.066v-1.506a3.852 3.852 0 0 1 1.161-2.754 3.9 3.9 0 0 1 2.764-1.145h.87a3.873 3.873 0 0 1 3.836 3.9v1.506a2.1 2.1 0 0 1 1.574 2.066v4.783a2.151 2.151 0 0 1-2.164 2.132zm-3.852-5.057a.523.523 0 0 0-.523.521v1.658a.523.523 0 0 0 .523.521.523.523 0 0 0 .523-.521v-1.658a.523.523 0 0 0-.523-.521zm-.264-8.285a2.9 2.9 0 0 0-2.878 2.854v1.418h6.539v-1.418a2.825 2.825 0 0 0-2.791-2.854z" transform="translate(5528.658 -20615.193)" style="fill:#3a4649"/>
    </g>
</svg>
